# Blender v2.77 (sub 0) OBJ File: 'stick.blend'
# www.blender.org
o Icosphere
v 0.167088 1.477708 0.121395
v 0.098211 1.384551 0.071354
v 0.196423 1.459577 0.000000
v 0.098211 1.384551 -0.071354
v 0.032609 1.364704 0.023692
v 0.032609 1.364704 -0.023692
v 0.219609 1.580975 0.071354
v -0.063821 1.477708 0.196423
v 0.060699 1.459577 0.186809
v 0.000000 1.580975 0.230910
v -0.206532 1.477708 0.000000
v -0.158910 1.459577 0.115454
v -0.219609 1.580975 0.071354
v -0.063821 1.477708 -0.196423
v -0.158910 1.459577 -0.115454
v -0.135725 1.580975 -0.186810
v 0.167088 1.477708 -0.121395
v 0.060699 1.459577 -0.186809
v 0.135725 1.580975 -0.186810
v 0.135725 1.580975 0.186810
v -0.135725 1.580975 0.186810
v -0.219609 1.580975 -0.071354
v 0.000000 1.580975 -0.230910
v 0.219609 1.580975 -0.071354
v 0.063821 1.684242 0.196423
v 0.158910 1.702373 0.115454
v 0.037513 1.777399 0.115454
v -0.167088 1.684242 0.121395
v -0.060699 1.702373 0.186809
v -0.098211 1.777399 0.071354
v -0.167088 1.684242 -0.121395
v -0.196423 1.702373 0.000000
v -0.098211 1.777399 -0.071354
v 0.063821 1.684242 -0.196423
v -0.060699 1.702373 -0.186809
v 0.037513 1.777399 -0.115454
v 0.206532 1.684242 0.000000
v 0.158910 1.702373 -0.115454
v 0.121396 1.777399 0.000000
v 0.000000 1.811885 0.000000
v -0.037513 1.384550 -0.115454
v -0.121396 1.384551 0.000000
v -0.037513 1.384550 0.115454
v 0.032609 1.036862 0.023692
v 0.032610 0.582476 -0.023692
v 0.032609 1.036862 -0.023692
v -0.040307 1.364704 0.000000
v -0.012455 1.364704 0.038334
v -0.012455 1.364704 -0.038334
v -0.012402 0.508181 0.086386
v 0.032609 -0.000000 0.388939
v 0.032610 0.508181 0.071743
v -0.012455 1.036862 -0.038334
v -0.040254 0.582476 0.000000
v -0.040307 1.036862 0.000000
v -0.012402 0.582475 0.038334
v 0.032610 0.582476 0.023692
v -0.012455 1.036862 0.038334
v -0.012402 0.582475 -0.038334
v 0.032609 1.085361 -0.023692
v -0.012455 1.085360 -0.038334
v -0.040307 1.085361 0.000000
v -0.012455 1.085360 0.038334
v 0.032609 1.085361 0.023692
v 0.136386 1.085361 -0.496411
v 0.181450 1.036862 -0.481769
v 0.136386 1.036862 -0.496411
v 0.136386 1.085361 0.496411
v 0.181450 1.036862 0.481769
v 0.181450 1.085361 0.481769
v 0.181450 1.085361 -0.481769
v 0.136386 1.036862 0.496411
v -0.012455 -0.000000 0.326913
v 0.032609 -0.000000 0.341556
v -0.040307 -0.000000 0.365247
v -0.012455 -0.000000 0.403581
v 0.032610 0.508181 0.024360
v -0.012402 0.508181 0.009717
v -0.040254 0.508181 0.048051
v 0.032610 0.507430 -0.024148
v -0.012455 0.000000 -0.321666
v -0.012455 0.507430 -0.009506
v -0.040307 0.507430 -0.047840
v -0.040307 0.000000 -0.360000
v -0.012455 0.507430 -0.086174
v 0.032609 0.000000 -0.383692
v 0.032610 0.507430 -0.071532
v 0.032609 0.000000 -0.336308
v -0.012455 0.000000 -0.398334
vt 0.0000 0.0000
vt 0.0000 0.0000
vt 0.0000 0.0000
vt 0.0000 0.0000
vt 0.0000 0.0000
vt 0.0000 0.0000
vt 0.0000 0.0000
vt 0.0000 0.0000
vt 0.0000 0.0000
vt 0.0000 0.0000
vt 0.0000 0.0000
vt 0.0000 0.0000
vt 0.0000 0.0000
vt 0.0000 0.0000
vt 0.0000 0.0000
vt 0.0000 0.0000
vt 0.0000 0.0000
vt 0.0000 0.0000
vt 0.0000 0.0000
vt 0.0000 0.0000
vt 0.0000 0.0000
vt 0.0000 0.0000
vt 0.0000 0.0000
vt 0.0000 0.0000
vt 0.0000 0.0000
vt 0.0000 0.0000
vt 0.0000 0.0000
vt 0.0000 0.0000
vt 0.0000 0.0000
vt 0.0000 0.0000
vt 0.0000 0.0000
vt 0.0000 0.0000
vt 0.0000 0.0000
vt 0.0000 0.0000
vt 0.0000 0.0000
vt 0.0000 0.0000
vt 0.0000 0.0000
vt 0.0000 0.0000
vt 0.0000 0.0000
vt 0.0000 0.0000
vt 0.0000 0.0000
vt 0.0000 0.0000
vt 0.0000 0.0000
vt 0.0000 0.0000
vt 0.0000 0.0000
vt 0.0000 0.0000
vt 0.0000 0.0000
vt 0.0000 0.0000
vt 0.0000 0.0000
vt 0.0000 0.0000
vt 0.0000 0.0000
vt 0.0000 0.0000
vt 0.0000 0.0000
vt 0.0000 0.0000
vt 0.0000 0.0000
vt 0.0000 0.0000
vt 0.0000 0.0000
vt 0.0000 0.0000
vt 0.0000 0.0000
vt 0.0000 0.0000
vt 0.0000 0.0000
vt 0.0000 0.0000
vt 0.0000 0.0000
vt 0.0000 0.0000
vt 0.0000 0.0000
vt 0.0000 0.0000
vt 0.0000 0.0000
vt 0.0000 0.0000
vt 0.0000 0.0000
vt 0.0000 0.0000
vt 0.0000 0.0000
vt 0.0000 0.0000
vt 0.0000 0.0000
vt 0.0000 0.0000
vt 0.0000 0.0000
vt 0.0000 0.0000
vt 0.0000 0.0000
vt 0.0000 0.0000
vt 0.0000 0.0000
vt 0.0000 0.0000
vt 0.0000 0.0000
vt 0.0000 0.0000
vt 0.0000 0.0000
vt 0.0000 0.0000
vt 0.0000 0.0000
vt 0.0000 0.0000
vt 0.0000 0.0000
vt 0.0000 0.0000
vt 0.0000 0.0000
vn 0.7002 -0.6617 0.2680
vn 0.2896 -0.9572 0.0000
vn 0.9050 -0.3304 0.2680
vn 0.0247 -0.3304 0.9435
vn -0.8897 -0.3304 0.3151
vn -0.5746 -0.3304 -0.7488
vn 0.5346 -0.3304 -0.7779
vn 0.8026 -0.1256 0.5831
vn -0.3066 -0.1256 0.9435
vn -0.9921 -0.1256 0.0000
vn -0.3066 -0.1256 -0.9435
vn 0.8026 -0.1256 -0.5831
vn 0.4089 0.6617 0.6284
vn -0.4713 0.6617 0.5831
vn -0.7002 0.6617 -0.2680
vn 0.0385 0.6617 -0.7488
vn 0.7240 0.6617 -0.1947
vn 0.2680 0.9435 -0.1947
vn 0.4911 0.7947 -0.3568
vn 0.4089 0.6617 -0.6284
vn -0.1024 0.9435 -0.3151
vn -0.1876 0.7947 -0.5773
vn -0.4713 0.6617 -0.5831
vn -0.3313 0.9435 0.0000
vn -0.6071 0.7947 0.0000
vn -0.7002 0.6617 0.2680
vn -0.1024 0.9435 0.3151
vn -0.1876 0.7947 0.5773
vn 0.0385 0.6617 0.7488
vn 0.2680 0.9435 0.1947
vn 0.4911 0.7947 0.3568
vn 0.7240 0.6617 0.1947
vn 0.8897 0.3304 -0.3151
vn 0.7947 0.1876 -0.5774
vn 0.5746 0.3304 -0.7488
vn -0.0247 0.3304 -0.9435
vn -0.3035 0.1876 -0.9342
vn -0.5346 0.3304 -0.7779
vn -0.9050 0.3304 -0.2680
vn -0.9822 0.1876 0.0000
vn -0.9050 0.3304 0.2680
vn -0.5346 0.3304 0.7779
vn -0.3035 0.1876 0.9342
vn -0.0247 0.3304 0.9435
vn 0.5746 0.3304 0.7488
vn 0.7947 0.1876 0.5774
vn 0.8897 0.3304 0.3151
vn 0.3066 0.1256 -0.9435
vn 0.3035 -0.1876 -0.9342
vn 0.0247 -0.3304 -0.9435
vn -0.8026 0.1256 -0.5831
vn -0.7947 -0.1876 -0.5774
vn -0.8897 -0.3304 -0.3151
vn -0.8026 0.1256 0.5831
vn -0.7947 -0.1876 0.5774
vn -0.5746 -0.3304 0.7488
vn 0.3066 0.1256 0.9435
vn 0.3035 -0.1876 0.9342
vn 0.5346 -0.3304 0.7779
vn 0.9921 0.1256 0.0000
vn 0.9822 -0.1876 0.0000
vn 0.9050 -0.3304 -0.2680
vn 0.4713 -0.6617 -0.5831
vn 0.1876 -0.7947 -0.5773
vn -0.0385 -0.6617 -0.7488
vn -0.4089 -0.6617 -0.6284
vn -0.4911 -0.7947 -0.3568
vn -0.7240 -0.6617 -0.1947
vn -0.7240 -0.6617 0.1947
vn -0.4911 -0.7947 0.3568
vn -0.4089 -0.6617 0.6284
vn 0.7002 -0.6617 -0.2680
vn 0.6071 -0.7947 0.0000
vn -0.0385 -0.6617 0.7488
vn 0.1876 -0.7947 0.5773
vn 0.4713 -0.6617 0.5831
vn 1.0000 0.0000 0.0000
vn -0.2343 -0.9572 0.1702
vn 0.0895 -0.9572 -0.2754
vn -0.2343 -0.9572 -0.1702
vn 0.0895 -0.9572 0.2754
vn 0.2660 0.5104 0.8177
vn 0.2657 0.5104 0.8178
vn -0.8090 -0.0000 -0.5878
vn -0.8090 -0.0001 -0.5878
vn 0.3090 0.0000 0.9511
vn 0.3093 0.0000 0.9510
vn -0.8090 -0.0000 0.5878
vn -0.8090 -0.0001 0.5878
vn 0.3090 0.0000 -0.9511
vn 0.3093 0.0000 -0.9510
vn 0.9511 0.0000 0.3090
vn -0.0000 1.0000 -0.0000
vn 0.9511 0.0000 -0.3090
vn -0.9511 0.0000 -0.3090
vn -0.9511 -0.0000 0.3090
vn 0.0000 -1.0000 0.0000
vn -0.7595 0.3445 0.5518
vn 0.2660 -0.5104 -0.8177
vn 0.2658 -0.5105 -0.8178
vn -0.7595 -0.3444 -0.5518
vn 0.2402 -0.6290 0.7394
vn 0.1379 -0.8949 0.4245
vn 0.2667 -0.5050 0.8209
vn 0.2656 0.5111 -0.8174
vn 0.2654 0.5124 -0.8167
vn 0.2667 0.5050 -0.8209
vn -0.7596 0.3441 -0.5519
vn -0.7608 0.3401 -0.5528
vn -0.7574 0.3514 -0.5503
vn 0.2644 0.5184 -0.8132
vn 0.2645 0.5184 -0.8132
vn -0.7597 -0.3438 0.5520
vn -0.7591 -0.3459 0.5515
vn -0.7577 -0.3504 0.5505
vn -0.7562 -0.3553 -0.5494
vn -0.7562 0.3554 0.5494
vn 0.2635 0.5239 0.8100
vn -0.9369 -0.3491 0.0162
vn -0.0050 -0.9999 0.0155
vn 0.2657 -0.5105 -0.8178
vn -0.7589 0.3464 -0.5514
vn 0.0127 -0.9992 0.0390
vn -0.7608 -0.3401 0.5528
s 1
f 1/1/1 2/2/1 3/3/1
f 4/4/2 5/5/2 6/6/2
f 1/1/3 3/3/3 7/7/3
f 8/8/4 9/9/4 10/10/4
f 11/11/5 12/12/5 13/13/5
f 14/14/6 15/15/6 16/16/6
f 17/17/7 18/18/7 19/19/7
f 1/1/8 7/7/8 20/20/8
f 8/8/9 10/10/9 21/21/9
f 11/11/10 13/13/10 22/22/10
f 14/14/11 16/16/11 23/23/11
f 17/17/12 19/19/12 24/24/12
f 25/25/13 26/26/13 27/27/13
f 28/28/14 29/29/14 30/30/14
f 31/31/15 32/32/15 33/33/15
f 34/34/16 35/35/16 36/36/16
f 37/37/17 38/38/17 39/39/17
f 39/39/18 36/36/18 40/40/18
f 39/39/19 38/38/19 36/36/19
f 38/38/20 34/34/20 36/36/20
f 36/36/21 33/33/21 40/40/21
f 36/36/22 35/35/22 33/33/22
f 35/35/23 31/31/23 33/33/23
f 33/33/24 30/30/24 40/40/24
f 33/33/25 32/32/25 30/30/25
f 32/32/26 28/28/26 30/30/26
f 30/30/27 27/27/27 40/40/27
f 30/30/28 29/29/28 27/27/28
f 29/29/29 25/25/29 27/27/29
f 27/27/30 39/39/30 40/40/30
f 27/27/31 26/26/31 39/39/31
f 26/26/32 37/37/32 39/39/32
f 24/24/33 38/38/33 37/37/33
f 24/24/34 19/19/34 38/38/34
f 19/19/35 34/34/35 38/38/35
f 23/23/36 35/35/36 34/34/36
f 23/23/37 16/16/37 35/35/37
f 16/16/38 31/31/38 35/35/38
f 22/22/39 32/32/39 31/31/39
f 22/22/40 13/13/40 32/32/40
f 13/13/41 28/28/41 32/32/41
f 21/21/42 29/29/42 28/28/42
f 21/21/43 10/10/43 29/29/43
f 10/10/44 25/25/44 29/29/44
f 20/20/45 26/26/45 25/25/45
f 20/20/46 7/7/46 26/26/46
f 7/7/47 37/37/47 26/26/47
f 19/19/48 23/23/48 34/34/48
f 19/19/49 18/18/49 23/23/49
f 18/18/50 14/14/50 23/23/50
f 16/16/51 22/22/51 31/31/51
f 16/16/52 15/15/52 22/22/52
f 15/15/53 11/11/53 22/22/53
f 13/13/54 21/21/54 28/28/54
f 13/13/55 12/12/55 21/21/55
f 12/12/56 8/8/56 21/21/56
f 10/10/57 20/20/57 25/25/57
f 10/10/58 9/9/58 20/20/58
f 9/9/59 1/1/59 20/20/59
f 7/7/60 24/24/60 37/37/60
f 7/7/61 3/3/61 24/24/61
f 3/3/62 17/17/62 24/24/62
f 4/4/63 18/18/63 17/17/63
f 4/4/64 41/41/64 18/18/64
f 41/41/65 14/14/65 18/18/65
f 41/41/66 15/15/66 14/14/66
f 41/41/67 42/42/67 15/15/67
f 42/42/68 11/11/68 15/15/68
f 42/42/69 12/12/69 11/11/69
f 42/42/70 43/43/70 12/12/70
f 43/43/71 8/8/71 12/12/71
f 3/3/72 4/4/72 17/17/72
f 3/3/73 2/2/73 4/4/73
f 43/43/74 9/9/74 8/8/74
f 43/43/75 2/2/75 9/9/75
f 2/2/76 1/1/76 9/9/76
f 44/44/77 45/45/77 46/46/77
f 43/43/78 47/47/78 48/48/78
f 4/4/79 49/49/79 41/41/79
f 41/41/80 47/47/80 42/42/80
f 2/2/81 48/48/81 5/5/81
f 50/50/82 51/51/83 52/52/82
f 53/53/84 54/54/85 55/55/84
f 44/44/86 56/56/87 57/57/87
f 58/58/88 54/54/89 56/56/89
f 46/46/90 59/59/91 53/53/90
f 49/49/90 60/60/90 61/61/90
f 48/48/88 62/62/88 63/63/88
f 48/48/86 64/64/86 5/5/86
f 49/49/84 62/62/84 47/47/84
f 5/5/77 60/60/77 6/6/77
f 65/65/90 66/66/90 67/67/90
f 63/63/88 55/55/88 58/58/88
f 68/68/86 69/69/86 70/70/86
f 61/61/84 55/55/84 62/62/84
f 64/64/77 46/46/77 60/60/77
f 71/71/92 46/46/92 66/66/92
f 65/65/93 60/60/93 71/71/93
f 68/68/93 64/64/93 63/63/93
f 69/69/94 64/64/94 70/70/94
f 67/67/95 61/61/95 65/65/95
f 68/68/96 58/58/96 72/72/96
f 66/66/97 53/53/97 67/67/97
f 72/72/97 44/44/97 69/69/97
f 73/73/97 74/74/97 51/51/97
f 50/50/98 75/75/98 76/76/98
f 77/77/99 73/73/100 78/78/99
f 52/52/77 74/74/77 77/77/77
f 79/79/101 73/73/101 75/75/101
f 80/80/102 82/81/103 81/82/104
f 85/83/105 87/84/106 86/85/107
f 87/84/77 80/80/77 88/86/77
f 85/83/108 89/87/109 84/88/109
f 59/59/110 83/89/110 54/54/110
f 87/84/106 59/59/111 45/45/112
f 87/84/77 45/45/77 80/80/77
f 52/52/77 77/77/77 57/57/77
f 83/89/113 82/81/114 54/54/115
f 78/78/116 79/79/116 54/54/116
f 56/56/117 79/79/117 50/50/117
f 56/56/118 52/52/118 57/57/118
f 54/54/119 82/81/119 78/78/119
f 78/78/120 80/80/120 77/77/120
f 45/45/77 77/77/77 80/80/77
f 4/4/2 2/2/2 5/5/2
f 44/44/77 57/57/77 45/45/77
f 43/43/78 42/42/78 47/47/78
f 4/4/79 6/6/79 49/49/79
f 41/41/80 49/49/80 47/47/80
f 2/2/81 43/43/81 48/48/81
f 50/50/82 76/76/83 51/51/83
f 53/53/84 59/59/85 54/54/85
f 44/44/86 58/58/86 56/56/87
f 58/58/88 55/55/88 54/54/89
f 46/46/90 45/45/91 59/59/91
f 49/49/90 6/6/90 60/60/90
f 48/48/88 47/47/88 62/62/88
f 48/48/86 63/63/86 64/64/86
f 49/49/84 61/61/84 62/62/84
f 5/5/77 64/64/77 60/60/77
f 65/65/90 71/71/90 66/66/90
f 63/63/88 62/62/88 55/55/88
f 68/68/86 72/72/86 69/69/86
f 61/61/84 53/53/84 55/55/84
f 64/64/77 44/44/77 46/46/77
f 71/71/92 60/60/92 46/46/92
f 65/65/93 61/61/93 60/60/93
f 68/68/93 70/70/93 64/64/93
f 69/69/94 44/44/94 64/64/94
f 67/67/95 53/53/95 61/61/95
f 68/68/96 63/63/96 58/58/96
f 66/66/97 46/46/97 53/53/97
f 72/72/97 58/58/97 44/44/97
f 51/51/97 76/76/97 75/75/97
f 75/75/97 73/73/97 51/51/97
f 50/50/98 79/79/98 75/75/98
f 77/77/99 74/74/121 73/73/100
f 52/52/77 51/51/77 74/74/77
f 79/79/101 78/78/101 73/73/101
f 80/80/104 81/82/104 88/86/104
f 85/83/107 86/85/107 89/87/107
f 87/84/77 88/86/77 86/85/77
f 85/83/108 84/88/109 83/89/122
f 59/59/110 85/83/108 83/89/122
f 87/84/106 85/83/105 59/59/111
f 56/56/117 54/54/117 79/79/117
f 56/56/118 50/50/118 52/52/118
f 78/78/123 82/81/103 80/80/102
f 45/45/77 57/57/77 77/77/77
f 81/82/124 83/89/113 84/88/124
f 82/81/114 83/89/113 81/82/124
