# Blender v2.77 (sub 0) OBJ File: 'bowl.blend'
# www.blender.org
o Icosphere
v 0.000000 -1.000000 0.000000
v 0.723607 -0.447220 0.525725
v -0.276388 -0.447220 0.850649
v -0.894426 -0.447216 0.000000
v -0.276388 -0.447220 -0.850649
v 0.723607 -0.447220 -0.525725
v -0.162456 -0.850654 0.499995
v 0.425323 -0.850654 0.309011
v 0.262869 -0.525738 0.809012
v 0.850648 -0.525736 0.000000
v 0.425323 -0.850654 -0.309011
v -0.525730 -0.850652 0.000000
v -0.688189 -0.525736 0.499997
v -0.162456 -0.850654 -0.499995
v -0.688189 -0.525736 -0.499997
v 0.262869 -0.525738 -0.809012
v 0.951058 0.000000 0.309013
v 0.951058 0.000000 -0.309013
v 0.000000 0.000000 1.000000
v 0.587786 0.000000 0.809017
v -0.951058 0.000000 0.309013
v -0.587786 0.000000 0.809017
v -0.587786 0.000000 -0.809017
v -0.951058 0.000000 -0.309013
v 0.587786 0.000000 -0.809017
v 0.000000 0.000000 -1.000000
v 0.000000 0.615693 -0.864894
v 0.508372 0.615693 -0.699714
v -0.822564 0.615693 -0.267263
v -0.508372 0.615693 -0.699714
v -0.508372 0.615693 0.699714
v -0.822564 0.615693 0.267263
v 0.508372 0.615693 0.699714
v 0.000000 0.615693 0.864894
v 0.822564 0.615693 -0.267263
v 0.822564 0.615693 0.267263
v 0.000000 -0.886000 0.000000
v 0.641118 -0.396240 0.465794
v -0.244881 -0.396237 0.753676
v -0.792464 -0.396236 0.000000
v -0.244881 -0.396237 -0.753676
v 0.641118 -0.396240 -0.465794
v -0.143936 -0.753681 0.442997
v 0.376838 -0.753681 0.273785
v 0.232903 -0.465806 0.716787
v 0.753675 -0.465805 0.000000
v 0.376838 -0.753681 -0.273785
v -0.465799 -0.753678 0.000000
v -0.609739 -0.465805 0.442999
v -0.143936 -0.753681 -0.442997
v -0.609739 -0.465805 -0.442999
v 0.232903 -0.465806 -0.716787
v 0.842363 0.000487 0.274649
v 0.842363 0.000487 -0.274649
v -0.000905 0.000487 0.886007
v 0.521515 0.000487 0.716264
v -0.842924 0.000487 0.272927
v -0.520051 0.000487 0.717325
v -0.520051 0.000487 -0.717325
v -0.842924 0.000487 -0.272927
v 0.521515 0.000487 -0.716264
v -0.000905 0.000487 -0.886007
v 0.000000 0.591259 -0.753545
v 0.442923 0.591259 -0.609633
v -0.716664 0.591259 -0.232855
v -0.442923 0.591259 -0.609633
v -0.442923 0.591259 0.609633
v -0.716664 0.591259 0.232855
v 0.442923 0.591259 0.609633
v 0.000000 0.591259 0.753545
v 0.716664 0.591259 -0.232855
v 0.716664 0.591259 0.232855
vt 0.4755 0.5000
vt 0.4553 0.5585
vt 0.4136 0.4988
vt 0.4313 0.6281
vt 0.5112 0.6172
vt 0.4575 0.4408
vt 0.5263 0.4645
vt 0.5249 0.5373
vt 0.4713 0.7244
vt 0.3400 0.4975
vt 0.3751 0.5702
vt 0.2608 0.5654
vt 0.4361 0.3704
vt 0.3778 0.4261
vt 0.3470 0.3160
vt 0.5866 0.4224
vt 0.5156 0.3842
vt 0.6108 0.3209
vt 0.5837 0.5817
vt 0.5981 0.5023
vt 0.6877 0.5733
vt 0.3402 0.6791
vt 0.2634 0.4266
vt 0.4797 0.2756
vt 0.6903 0.4347
vt 0.6040 0.6840
vt 0.4755 0.9999
vt 0.4755 0.0001
vt 0.9510 0.3455
vt 0.7694 0.0956
vt 0.9510 0.6545
vt 0.1817 0.9044
vt 0.0001 0.3455
vt 0.0001 0.6545
vt 0.1817 0.0956
vt 0.7694 0.9044
vt 0.4136 0.4988
vt 0.4553 0.5585
vt 0.4755 0.5000
vt 0.5112 0.6172
vt 0.4313 0.6281
vt 0.4575 0.4408
vt 0.5263 0.4645
vt 0.5249 0.5373
vt 0.4713 0.7244
vt 0.2608 0.5654
vt 0.3751 0.5702
vt 0.3400 0.4975
vt 0.3470 0.3160
vt 0.3778 0.4261
vt 0.4361 0.3704
vt 0.6108 0.3209
vt 0.5156 0.3842
vt 0.5866 0.4224
vt 0.6877 0.5733
vt 0.5981 0.5023
vt 0.5837 0.5817
vt 0.3402 0.6791
vt 0.2634 0.4266
vt 0.4797 0.2756
vt 0.6903 0.4347
vt 0.6040 0.6840
vt 0.7694 0.9044
vt 0.4755 0.9999
vt 0.1817 0.0956
vt 0.4755 0.0001
vt 0.7694 0.0956
vt 0.9510 0.3455
vt 0.9510 0.6545
vt 0.1817 0.9044
vt 0.0001 0.3455
vt 0.0001 0.6545
vn 0.0000 -1.0000 0.0000
vn 0.4253 -0.8506 0.3090
vn -0.1625 -0.8506 0.5000
vn 0.7236 -0.4472 0.5257
vn 0.8506 -0.5257 0.0000
vn -0.5257 -0.8506 0.0000
vn -0.1625 -0.8506 -0.5000
vn 0.4253 -0.8506 -0.3090
vn 0.9535 -0.0043 0.3014
vn -0.2764 -0.4472 0.8506
vn 0.2629 -0.5257 0.8090
vn 0.0079 -0.0043 0.9999
vn -0.8944 -0.4472 0.0000
vn -0.6882 -0.5257 0.5000
vn -0.9485 -0.0043 0.3165
vn -0.2764 -0.4472 -0.8506
vn -0.6882 -0.5257 -0.5000
vn -0.5942 -0.0043 -0.8043
vn 0.7236 -0.4472 -0.5257
vn 0.2629 -0.5257 -0.8090
vn 0.5813 -0.0043 -0.8136
vn 0.5813 -0.0043 0.8136
vn -0.5942 -0.0043 0.8043
vn -0.9485 -0.0043 -0.3165
vn 0.0079 -0.0043 -0.9999
vn 0.9535 -0.0043 -0.3014
vn 0.5943 0.7807 0.1931
vn -0.5943 0.7807 -0.1931
vn 0.0000 0.7807 -0.6249
vn -0.3673 0.7807 -0.5056
vn 0.3673 0.7807 -0.5056
vn 0.3673 0.7807 0.5056
vn -0.3673 0.7807 0.5056
vn 0.0000 0.7807 0.6249
vn -0.5943 0.7807 0.1931
vn 0.5943 0.7807 -0.1931
vn 0.1625 0.8506 -0.5000
vn -0.4253 0.8506 -0.3090
vn 0.0000 1.0000 0.0000
vn -0.8508 0.5255 0.0000
vn -0.7236 0.4473 -0.5257
vn 0.5257 0.8506 0.0000
vn 0.1625 0.8506 0.5000
vn -0.4253 0.8506 0.3090
vn -0.9534 0.0019 -0.3017
vn -0.0076 0.0019 -0.9999
vn -0.2629 0.5255 -0.8092
vn 0.2763 0.4473 -0.8506
vn 0.9486 0.0019 -0.3163
vn 0.6883 0.5255 -0.5001
vn 0.8943 0.4473 0.0000
vn 0.5940 0.0019 0.8045
vn 0.6883 0.5255 0.5001
vn 0.2763 0.4473 0.8506
vn -0.5816 0.0019 0.8135
vn -0.2629 0.5255 0.8092
vn -0.7236 0.4473 0.5257
vn -0.5816 0.0019 -0.8135
vn 0.5940 0.0019 -0.8045
vn 0.9486 0.0019 0.3163
vn -0.0076 0.0019 0.9999
vn -0.9534 0.0019 0.3017
vn -0.7526 0.6114 0.2443
vn -0.7526 0.6114 -0.2443
vn 0.7525 0.6114 -0.2447
vn 0.7525 0.6114 0.2447
vn 0.4653 0.6114 0.6401
vn -0.0002 0.6114 0.7913
vn -0.4649 0.6114 0.6403
vn -0.4649 0.6114 -0.6403
vn 0.4653 0.6114 -0.6401
vn -0.0002 0.6114 -0.7913
s 1
f 1/1/1 8/2/2 7/3/3
f 2/4/4 8/2/2 10/5/5
f 1/1/1 7/3/3 12/6/6
f 1/1/1 12/6/6 14/7/7
f 1/1/1 14/7/7 11/8/8
f 2/4/4 10/5/5 17/9/9
f 3/10/10 9/11/11 19/12/12
f 4/13/13 13/14/14 21/15/15
f 5/16/16 15/17/17 23/18/18
f 6/19/19 16/20/20 25/21/21
f 2/4/4 17/9/9 20/22/22
f 3/10/10 19/12/12 22/23/23
f 4/13/13 21/15/15 24/24/24
f 5/16/16 23/18/18 26/25/25
f 6/19/19 25/21/21 18/26/26
f 18/26/26 36/27/27 17/9/9
f 21/15/15 29/28/28 24/24/24
f 23/18/18 27/29/29 26/25/25
f 24/24/24 30/30/30 23/18/18
f 26/25/25 28/31/31 25/21/21
f 17/9/9 33/32/32 20/22/22
f 19/12/12 31/33/33 22/23/23
f 20/22/22 34/34/34 19/12/12
f 22/23/23 32/35/35 21/15/15
f 25/21/21 35/36/36 18/26/26
f 25/21/21 16/20/20 26/25/25
f 16/20/20 5/16/16 26/25/25
f 23/18/18 15/17/17 24/24/24
f 15/17/17 4/13/13 24/24/24
f 21/15/15 13/14/14 22/23/23
f 13/14/14 3/10/10 22/23/23
f 19/12/12 9/11/11 20/22/22
f 9/11/11 2/4/4 20/22/22
f 17/9/9 10/5/5 18/26/26
f 10/5/5 6/19/19 18/26/26
f 11/8/8 16/20/20 6/19/19
f 11/8/8 14/7/7 16/20/20
f 14/7/7 5/16/16 16/20/20
f 14/7/7 15/17/17 5/16/16
f 14/7/7 12/6/6 15/17/17
f 12/6/6 4/13/13 15/17/17
f 12/6/6 13/14/14 4/13/13
f 12/6/6 7/3/3 13/14/14
f 7/3/3 3/10/10 13/14/14
f 10/5/5 11/8/8 6/19/19
f 10/5/5 8/2/2 11/8/8
f 8/2/2 1/1/1 11/8/8
f 7/3/3 9/11/11 3/10/10
f 7/3/3 8/2/2 9/11/11
f 8/2/2 2/4/4 9/11/11
f 43/37/37 44/38/38 37/39/39
f 46/40/40 44/38/38 38/41/41
f 48/42/42 43/37/37 37/39/39
f 50/43/43 48/42/42 37/39/39
f 47/44/44 50/43/43 37/39/39
f 53/45/45 46/40/40 38/41/41
f 55/46/46 45/47/47 39/48/48
f 57/49/49 49/50/50 40/51/51
f 59/52/52 51/53/53 41/54/54
f 61/55/55 52/56/56 42/57/57
f 56/58/58 53/45/45 38/41/41
f 58/59/59 55/46/46 39/48/48
f 60/60/60 57/49/49 40/51/51
f 62/61/61 59/52/52 41/54/54
f 54/62/62 61/55/55 42/57/57
f 71/63/63 53/45/45 72/64/64
f 68/65/65 60/60/60 65/66/66
f 66/67/67 62/61/61 63/68/68
f 65/66/66 59/52/52 66/67/67
f 64/69/69 62/61/61 61/55/55
f 69/70/70 53/45/45 56/58/58
f 67/71/71 55/46/46 58/59/59
f 69/70/70 55/46/46 70/72/72
f 68/65/65 58/59/59 57/49/49
f 64/69/69 54/62/62 71/63/63
f 62/61/61 52/56/56 61/55/55
f 62/61/61 41/54/54 52/56/56
f 60/60/60 51/53/53 59/52/52
f 60/60/60 40/51/51 51/53/53
f 58/59/59 49/50/50 57/49/49
f 58/59/59 39/48/48 49/50/50
f 56/58/58 45/47/47 55/46/46
f 56/58/58 38/41/41 45/47/47
f 54/62/62 46/40/40 53/45/45
f 54/62/62 42/57/57 46/40/40
f 42/57/57 52/56/56 47/44/44
f 52/56/56 50/43/43 47/44/44
f 52/56/56 41/54/54 50/43/43
f 41/54/54 51/53/53 50/43/43
f 51/53/53 48/42/42 50/43/43
f 51/53/53 40/51/51 48/42/42
f 40/51/51 49/50/50 48/42/42
f 49/50/50 43/37/37 48/42/42
f 49/50/50 39/48/48 43/37/37
f 42/57/57 47/44/44 46/40/40
f 47/44/44 44/38/38 46/40/40
f 47/44/44 37/39/39 44/38/38
f 39/48/48 45/47/47 43/37/37
f 45/47/47 44/38/38 43/37/37
f 45/47/47 38/41/41 44/38/38
f 32/35/35 65/66/66 29/28/28
f 34/34/34 69/70/70 70/72/72
f 31/33/33 68/65/65 32/35/35
f 28/31/31 71/63/63 35/36/36
f 27/29/29 66/67/67 63/68/68
f 33/32/32 72/64/64 69/70/70
f 34/34/34 67/71/71 31/33/33
f 30/30/30 65/66/66 66/67/67
f 27/29/29 64/69/69 28/31/31
f 35/36/36 72/64/64 36/27/27
f 18/26/26 35/36/36 36/27/27
f 21/15/15 32/35/35 29/28/28
f 23/18/18 30/30/30 27/29/29
f 24/24/24 29/28/28 30/30/30
f 26/25/25 27/29/29 28/31/31
f 17/9/9 36/27/27 33/32/32
f 19/12/12 34/34/34 31/33/33
f 20/22/22 33/32/32 34/34/34
f 22/23/23 31/33/33 32/35/35
f 25/21/21 28/31/31 35/36/36
f 71/63/63 54/62/62 53/45/45
f 68/65/65 57/49/49 60/60/60
f 66/67/67 59/52/52 62/61/61
f 65/66/66 60/60/60 59/52/52
f 64/69/69 63/68/68 62/61/61
f 69/70/70 72/64/64 53/45/45
f 67/71/71 70/72/72 55/46/46
f 69/70/70 56/58/58 55/46/46
f 68/65/65 67/71/71 58/59/59
f 64/69/69 61/55/55 54/62/62
f 32/35/35 68/65/65 65/66/66
f 34/34/34 33/32/32 69/70/70
f 31/33/33 67/71/71 68/65/65
f 28/31/31 64/69/69 71/63/63
f 27/29/29 30/30/30 66/67/67
f 33/32/32 36/27/27 72/64/64
f 34/34/34 70/72/72 67/71/71
f 30/30/30 29/28/28 65/66/66
f 27/29/29 63/68/68 64/69/69
f 35/36/36 71/63/63 72/64/64
